<mxfile host="app.diagrams.net" modified="2021-01-28T16:20:16.616Z" agent="5.0 (Windows)" etag="13i7gf3bjzQABk7_yFaC" version="14.2.7" type="github">
  <diagram id="KoK0PCqbbtq8ZABcu_Ot" name="Page-1">
    <mxGraphModel dx="1038" dy="547" grid="1" gridSize="10" guides="1" tooltips="1" connect="1" arrows="1" fold="1" page="1" pageScale="1" pageWidth="1169" pageHeight="827" math="0" shadow="0">
      <root>
        <mxCell id="0" />
        <mxCell id="1" parent="0" />
        <mxCell id="OQvwtEZu1LkCvoDyPKeE-1" value="Quarterly/Annual Reporting" style="swimlane;" vertex="1" parent="1">
          <mxGeometry x="10" y="30" width="830" height="780" as="geometry" />
        </mxCell>
        <mxCell id="OQvwtEZu1LkCvoDyPKeE-2" value="Start" style="rounded=1;whiteSpace=wrap;html=1;" vertex="1" parent="OQvwtEZu1LkCvoDyPKeE-1">
          <mxGeometry x="170" y="40" width="120" height="60" as="geometry" />
        </mxCell>
        <mxCell id="OQvwtEZu1LkCvoDyPKeE-6" value="PI, RS, Biometrics&amp;amp; GIS/RS Specialists, Technical officers prepares and submit report based on approved workplans and budgets to PI, DRD, RD if at Eco Region and Heads of Sections/DD if at HQ" style="rounded=0;whiteSpace=wrap;html=1;" vertex="1" parent="OQvwtEZu1LkCvoDyPKeE-1">
          <mxGeometry x="120" y="150" width="220" height="90" as="geometry" />
        </mxCell>
        <mxCell id="OQvwtEZu1LkCvoDyPKeE-5" value="" style="edgeStyle=orthogonalEdgeStyle;rounded=0;orthogonalLoop=1;jettySize=auto;html=1;" edge="1" parent="OQvwtEZu1LkCvoDyPKeE-1" source="OQvwtEZu1LkCvoDyPKeE-2" target="OQvwtEZu1LkCvoDyPKeE-6">
          <mxGeometry relative="1" as="geometry">
            <mxPoint x="230" y="180" as="targetPoint" />
          </mxGeometry>
        </mxCell>
        <mxCell id="OQvwtEZu1LkCvoDyPKeE-7" value="Type of report (Quarterly/Annual)" style="shape=parallelogram;perimeter=parallelogramPerimeter;whiteSpace=wrap;html=1;fixedSize=1;" vertex="1" parent="OQvwtEZu1LkCvoDyPKeE-1">
          <mxGeometry x="430" y="160" width="140" height="70" as="geometry" />
        </mxCell>
        <mxCell id="OQvwtEZu1LkCvoDyPKeE-9" value="" style="edgeStyle=orthogonalEdgeStyle;rounded=0;orthogonalLoop=1;jettySize=auto;html=1;" edge="1" parent="OQvwtEZu1LkCvoDyPKeE-1" source="OQvwtEZu1LkCvoDyPKeE-7" target="OQvwtEZu1LkCvoDyPKeE-6">
          <mxGeometry relative="1" as="geometry">
            <mxPoint x="390" y="195" as="targetPoint" />
          </mxGeometry>
        </mxCell>
        <mxCell id="OQvwtEZu1LkCvoDyPKeE-10" value="DD/DRD/RD review report and provide feedback to PI, RS, and Technical Officers" style="whiteSpace=wrap;html=1;rounded=0;" vertex="1" parent="OQvwtEZu1LkCvoDyPKeE-1">
          <mxGeometry x="150" y="320" width="160" height="60" as="geometry" />
        </mxCell>
        <mxCell id="OQvwtEZu1LkCvoDyPKeE-11" value="" style="edgeStyle=orthogonalEdgeStyle;rounded=0;orthogonalLoop=1;jettySize=auto;html=1;" edge="1" parent="OQvwtEZu1LkCvoDyPKeE-1" source="OQvwtEZu1LkCvoDyPKeE-6" target="OQvwtEZu1LkCvoDyPKeE-10">
          <mxGeometry relative="1" as="geometry" />
        </mxCell>
        <mxCell id="OQvwtEZu1LkCvoDyPKeE-14" value="PI, RS, Heads of R&amp;amp;D sections amend report" style="whiteSpace=wrap;html=1;rounded=0;" vertex="1" parent="OQvwtEZu1LkCvoDyPKeE-1">
          <mxGeometry x="350" y="455" width="140" height="70" as="geometry" />
        </mxCell>
        <mxCell id="OQvwtEZu1LkCvoDyPKeE-16" value="yes" style="text;html=1;strokeColor=none;fillColor=none;align=center;verticalAlign=middle;whiteSpace=wrap;rounded=0;" vertex="1" parent="OQvwtEZu1LkCvoDyPKeE-1">
          <mxGeometry x="280" y="470" width="40" height="20" as="geometry" />
        </mxCell>
        <mxCell id="OQvwtEZu1LkCvoDyPKeE-21" value="no" style="text;html=1;strokeColor=none;fillColor=none;align=center;verticalAlign=middle;whiteSpace=wrap;rounded=0;" vertex="1" parent="OQvwtEZu1LkCvoDyPKeE-1">
          <mxGeometry x="220" y="560" width="40" height="20" as="geometry" />
        </mxCell>
        <mxCell id="OQvwtEZu1LkCvoDyPKeE-22" value="DD harmonise reports from RD, PI, Heads of Sections and submit to SDDR&amp;amp;D" style="whiteSpace=wrap;html=1;rounded=0;" vertex="1" parent="OQvwtEZu1LkCvoDyPKeE-1">
          <mxGeometry x="510" y="680" width="150" height="80" as="geometry" />
        </mxCell>
        <mxCell id="OQvwtEZu1LkCvoDyPKeE-15" value="" style="edgeStyle=orthogonalEdgeStyle;rounded=0;orthogonalLoop=1;jettySize=auto;html=1;" edge="1" parent="1" source="OQvwtEZu1LkCvoDyPKeE-12" target="OQvwtEZu1LkCvoDyPKeE-14">
          <mxGeometry relative="1" as="geometry" />
        </mxCell>
        <mxCell id="OQvwtEZu1LkCvoDyPKeE-18" value="" style="edgeStyle=orthogonalEdgeStyle;rounded=0;orthogonalLoop=1;jettySize=auto;html=1;" edge="1" parent="1" source="OQvwtEZu1LkCvoDyPKeE-12" target="OQvwtEZu1LkCvoDyPKeE-17">
          <mxGeometry relative="1" as="geometry" />
        </mxCell>
        <mxCell id="OQvwtEZu1LkCvoDyPKeE-12" value="Corrections needed?" style="rhombus;whiteSpace=wrap;html=1;rounded=0;" vertex="1" parent="1">
          <mxGeometry x="190" y="480" width="100" height="80" as="geometry" />
        </mxCell>
        <mxCell id="OQvwtEZu1LkCvoDyPKeE-13" value="" style="edgeStyle=orthogonalEdgeStyle;rounded=0;orthogonalLoop=1;jettySize=auto;html=1;" edge="1" parent="1" source="OQvwtEZu1LkCvoDyPKeE-10" target="OQvwtEZu1LkCvoDyPKeE-12">
          <mxGeometry relative="1" as="geometry" />
        </mxCell>
        <mxCell id="OQvwtEZu1LkCvoDyPKeE-23" value="" style="edgeStyle=orthogonalEdgeStyle;rounded=0;orthogonalLoop=1;jettySize=auto;html=1;entryX=0;entryY=0.5;entryDx=0;entryDy=0;" edge="1" parent="1" source="OQvwtEZu1LkCvoDyPKeE-17" target="OQvwtEZu1LkCvoDyPKeE-22">
          <mxGeometry relative="1" as="geometry">
            <Array as="points">
              <mxPoint x="240" y="750" />
            </Array>
          </mxGeometry>
        </mxCell>
        <mxCell id="OQvwtEZu1LkCvoDyPKeE-17" value="Submit to supervisors" style="whiteSpace=wrap;html=1;rounded=0;" vertex="1" parent="1">
          <mxGeometry x="180" y="650" width="120" height="60" as="geometry" />
        </mxCell>
        <mxCell id="OQvwtEZu1LkCvoDyPKeE-20" value="" style="edgeStyle=orthogonalEdgeStyle;rounded=0;orthogonalLoop=1;jettySize=auto;html=1;entryX=1;entryY=0.5;entryDx=0;entryDy=0;" edge="1" parent="1" source="OQvwtEZu1LkCvoDyPKeE-14" target="OQvwtEZu1LkCvoDyPKeE-17">
          <mxGeometry relative="1" as="geometry">
            <mxPoint x="430" y="640" as="targetPoint" />
            <Array as="points">
              <mxPoint x="430" y="680" />
            </Array>
          </mxGeometry>
        </mxCell>
      </root>
    </mxGraphModel>
  </diagram>
</mxfile>
